<?xml version="1.0" standalone="no"?>
<!DOCTYPE svg PUBLIC "-//W3C//DTD SVG 20010904//EN"
 "http://www.w3.org/TR/2001/REC-SVG-20010904/DTD/svg10.dtd">
<svg version="1.0" xmlns="http://www.w3.org/2000/svg"
 width="1024.000000pt" height="1024.000000pt" viewBox="0 0 1024.000000 1024.000000"
 preserveAspectRatio="xMidYMid meet">
<metadata>
Created by potrace 1.16, written by Peter Selinger 2001-2019
</metadata>
<g transform="translate(0.000000,1024.000000) scale(0.100000,-0.100000)"
fill="#000000" stroke="none">
<path d="M0 5120 l0 -5120 5120 0 5120 0 0 5120 0 5120 -5120 0 -5120 0 0
-5120z m5255 2801 c201 -99 277 -307 199 -539 -9 -26 -46 -105 -83 -177 -36
-71 -68 -134 -70 -139 -2 -5 4 -6 15 -1 39 16 194 56 349 89 699 150 1270 86
1595 -178 38 -31 64 -60 64 -70 -2 -14 1 -15 15 -4 14 11 14 11 4 -2 -8 -10
-9 -21 -3 -30 14 -22 12 -29 -9 -27 -11 0 -17 5 -15 9 3 4 -4 8 -15 8 -22 0
-81 31 -81 43 0 4 -4 7 -10 7 -5 0 -40 19 -77 41 -224 138 -562 206 -903 183
l-125 -9 1 -133 c1 -73 3 -135 6 -137 3 -3 38 -2 79 3 98 10 123 4 127 -32 2
-16 -1 -33 -6 -38 -5 -5 -43 -14 -83 -19 -118 -14 -129 -18 -129 -42 0 -12 -9
-40 -19 -63 -49 -108 -190 -128 -280 -40 l-37 36 -99 -34 c-167 -56 -322 -122
-505 -214 l-174 -87 -16 -50 c-33 -99 -103 -375 -97 -381 3 -3 18 3 34 13 81
57 439 261 588 336 240 119 478 203 678 240 164 29 469 31 595 4 354 -78 624
-278 770 -572 46 -93 82 -202 82 -251 0 -27 -5 -37 -25 -46 -35 -16 -51 1 -76
86 -49 166 -119 278 -254 411 -368 362 -972 389 -1630 72 -187 -90 -541 -290
-792 -447 -12 -8 -24 -25 -27 -39 -3 -14 -14 -70 -26 -125 -45 -211 -62 -524
-39 -693 23 -167 105 -351 215 -480 84 -98 178 -165 464 -328 209 -119 315
-202 304 -239 -4 -15 -3 -17 4 -7 6 8 12 9 16 3 8 -13 -17 -22 -34 -12 -7 4
-10 13 -6 19 5 7 1 9 -9 5 -8 -4 -50 12 -93 34 -95 49 -202 93 -202 83 0 -16
139 -139 407 -360 216 -177 302 -389 247 -605 -62 -243 -323 -389 -584 -326
-145 34 -276 144 -347 292 -29 61 -40 132 -23 152 16 20 194 89 217 84 18 -3
40 -40 64 -106 36 -99 137 -170 225 -158 95 13 152 62 176 149 10 39 9 54 -5
100 -24 75 -63 117 -292 308 -212 176 -296 259 -351 346 -35 54 -84 185 -84
225 0 18 -18 35 -81 77 -294 194 -439 477 -439 854 0 150 31 460 57 565 l5 23
-34 -20 c-32 -19 -158 -119 -221 -176 -15 -14 -33 -23 -39 -19 -6 4 -8 3 -5
-3 4 -6 -6 -21 -21 -34 -14 -13 -21 -16 -14 -7 12 14 10 16 -10 11 -13 -3 -20
-2 -16 2 4 5 3 14 -3 22 -14 16 3 17 19 1 9 -9 15 -9 23 -1 8 8 6 11 -7 10
-11 -1 -18 4 -16 11 1 8 -2 11 -8 7 -7 -4 -6 2 2 14 12 19 13 19 20 3 6 -15 7
-15 8 3 2 11 2 24 1 28 -1 5 8 11 19 14 11 3 18 9 15 13 -7 12 134 142 238
219 l94 69 12 63 c7 35 28 129 47 208 19 79 32 146 30 148 -15 16 -210 -141
-372 -299 -72 -70 -139 -128 -148 -128 -10 0 -14 5 -11 11 4 6 14 8 22 5 8 -3
11 -2 8 3 -7 12 -45 10 -45 -2 0 -4 -5 -5 -11 -1 -8 5 -7 9 1 14 7 4 10 14 7
22 -5 16 20 21 38 8 6 -4 19 -4 30 1 l20 8 -20 1 c-11 2 -23 2 -27 1 -5 0 -8
8 -8 19 0 14 5 18 17 13 13 -5 15 -2 9 12 -5 15 25 49 147 169 126 123 178
167 285 236 119 77 133 89 142 123 10 34 124 357 146 411 6 16 -5 13 -62 -19
-220 -122 -369 -249 -611 -520 -109 -122 -121 -135 -133 -135 -6 0 -9 -4 -6
-9 7 -11 -22 -23 -35 -15 -5 3 -9 12 -9 20 0 8 -6 17 -14 20 -12 5 -12 8 2 24
8 11 20 16 25 13 6 -3 7 -1 3 6 -10 15 13 43 28 34 6 -3 8 -2 3 2 -10 12 13
45 117 165 236 273 371 378 725 566 l53 29 80 175 c44 96 91 209 105 250 51
150 16 270 -96 333 -47 27 -64 31 -130 30 -210 -1 -328 -99 -771 -639 -35 -44
-92 -108 -126 -143 -51 -53 -65 -63 -77 -53 -7 6 -17 9 -21 5 -4 -4 -4 0 0 10
3 9 10 17 15 17 4 0 5 7 2 17 -4 11 -3 14 5 9 7 -4 12 -3 12 3 0 5 -6 12 -12
14 -7 3 -1 6 15 6 15 1 27 -4 27 -11 0 -6 2 -9 5 -6 12 12 -7 36 -26 31 -10
-3 -19 -1 -19 5 0 14 36 25 52 16 10 -6 11 -4 1 7 -16 16 -17 33 -1 23 7 -4 8
-3 4 5 -5 7 24 50 71 109 44 53 135 167 203 252 323 402 499 526 733 516 74
-3 98 -9 152 -35z m-2194 -111 c24 -13 25 -56 2 -68 -10 -6 -38 -13 -63 -17
-130 -21 -235 -97 -291 -210 -24 -50 -33 -83 -38 -148 -3 -47 -12 -92 -20
-101 -20 -24 -48 -20 -67 10 -15 22 -16 36 -6 116 27 215 161 371 356 413 77
17 102 18 127 5z m3570 -11 c15 -24 10 -58 -10 -69 -32 -17 -187 -13 -205 6
-23 22 -20 63 4 72 35 13 201 6 211 -9z m696 -11 c132 -49 245 -161 282 -282
17 -55 20 -100 22 -395 3 -356 3 -355 -46 -349 -41 6 -45 37 -44 344 1 305 -3
339 -46 424 -27 54 -105 130 -165 160 -23 12 -74 27 -112 35 -67 12 -87 25
-88 51 0 45 92 51 197 12z m-3447 2 c12 -23 0 -54 -26 -64 -8 -3 -53 -6 -98
-6 -86 0 -106 8 -106 45 0 38 19 45 122 45 87 0 98 -2 108 -20z m1228 -198
c25 -32 9 -55 -61 -93 -185 -102 -333 -250 -736 -738 -151 -184 -179 -213
-190 -206 -6 3 -9 0 -6 -8 8 -18 -33 -69 -48 -60 -7 3 -9 3 -5 -1 4 -5 -4 -20
-18 -35 -21 -22 -26 -24 -34 -11 -15 23 -12 36 3 15 10 -12 16 -14 21 -7 4 7
3 12 -2 12 -5 0 -12 11 -14 25 -5 26 6 35 15 13 4 -10 6 -10 6 0 1 7 -6 15
-14 18 -13 5 -13 10 2 35 9 15 20 26 25 23 4 -3 8 2 8 11 0 8 7 18 15 21 8 4
13 9 10 13 -2 4 13 28 33 53 20 25 80 100 132 167 278 359 494 594 634 690
125 86 191 104 224 63z m1646 -73 c44 -6 122 -22 175 -35 203 -53 487 -223
456 -274 -3 -6 2 -7 12 -4 16 5 16 4 -1 -6 -13 -9 -15 -14 -6 -20 9 -5 9 -9 1
-14 -6 -4 -11 -2 -11 4 0 6 -5 8 -10 5 -6 -4 -7 -11 -4 -17 4 -6 -14 4 -41 23
-26 19 -68 49 -94 67 -107 77 -277 145 -443 177 -46 9 -157 19 -248 22 -91 3
-168 10 -171 15 -3 5 -9 3 -12 -6 -7 -19 -72 -22 -83 -4 -4 7 -3 8 4 4 8 -4
10 -2 6 8 -3 8 -13 13 -22 10 -9 -3 -6 2 8 10 14 8 19 15 11 16 -25 0 0 15 27
16 15 1 34 4 42 7 40 16 274 14 404 -4z m-3610 -25 c14 -14 16 -118 16 -1000
l0 -984 94 0 94 0 6 68 c3 37 5 480 4 986 -2 889 -1 919 17 932 13 10 49 14
116 14 102 0 129 -10 129 -48 0 -9 0 -438 0 -953 0 -515 3 -951 6 -968 l7 -31
121 0 c82 0 128 -4 139 -12 23 -18 27 -232 5 -254 -12 -12 -93 -14 -494 -14
-477 -1 -479 -1 -496 21 -17 20 -18 88 -18 1111 0 1097 1 1118 34 1140 6 4 55
8 108 8 75 0 100 -4 112 -16z m996 -30 c0 -9 9 -18 20 -21 16 -4 18 -8 9 -19
-6 -8 -15 -11 -20 -8 -5 3 -6 -3 -2 -12 4 -12 3 -15 -5 -10 -7 4 -12 2 -12 -4
0 -11 -75 -83 -184 -179 -56 -48 -95 -62 -88 -32 1 7 -2 10 -7 7 -5 -4 -12 -2
-16 4 -3 5 -1 10 5 10 7 0 9 7 6 16 -3 8 -2 12 4 9 6 -3 10 0 10 8 0 7 34 45
76 83 42 38 100 90 128 116 53 49 76 59 76 32z m2705 -659 c127 -31 221 -70
322 -134 54 -34 69 -48 62 -58 -8 -9 -6 -11 10 -8 12 2 21 0 21 -6 0 -5 -4 -9
-10 -9 -5 0 -10 -7 -10 -15 0 -21 -70 -12 -87 11 -7 10 -13 15 -13 11 0 -4
-40 13 -88 37 -101 52 -221 88 -342 105 -47 7 -95 14 -107 17 -28 5 -41 48
-22 70 19 23 120 14 264 -21z m-4197 -57 c9 -9 12 -129 12 -479 0 -412 -2
-469 -16 -483 -21 -22 -40 -20 -58 6 -14 20 -16 81 -16 473 0 392 2 453 16
473 17 24 43 29 62 10z m3980 -722 c64 -23 118 -64 157 -120 61 -89 69 -160
19 -172 -32 -8 -50 8 -69 65 -18 54 -73 113 -127 136 -23 9 -68 15 -116 15
-126 0 -265 -53 -425 -161 -32 -22 -63 -37 -69 -33 -6 4 -8 3 -5 -2 3 -6 -2
-15 -12 -21 -14 -9 -21 -7 -34 7 -21 24 -11 59 19 66 13 3 22 10 19 14 -3 5
12 21 32 38 201 156 449 225 611 168z m-71 -280 c22 -19 28 -32 28 -66 0 -96
-126 -126 -170 -40 -22 43 -19 68 14 101 38 37 88 39 128 5z m-1007 -18 c81
-36 160 -114 200 -194 58 -119 52 -298 -15 -404 -81 -128 -236 -203 -375 -181
-111 18 -207 88 -249 181 -30 66 -29 178 3 245 52 114 189 171 257 109 25 -23
25 -54 -1 -54 -11 0 -37 -7 -59 -16 -51 -20 -76 -66 -68 -123 7 -58 31 -89 85
-113 41 -18 52 -20 91 -9 92 24 140 89 141 187 0 142 -141 252 -296 230 -57
-7 -95 -28 -151 -79 -29 -27 -47 -37 -52 -29 -4 8 -11 5 -19 -8 -9 -16 -9 -20
0 -20 9 0 8 -3 -1 -12 -11 -11 -14 -10 -18 0 -3 6 -9 10 -14 6 -5 -3 -9 3 -9
13 0 14 -2 15 -9 4 -7 -11 -10 -10 -13 5 -10 50 119 201 214 250 70 35 112 43
213 40 70 -2 102 -8 145 -28z m1040 -382 c6 -8 10 -25 8 -38 -3 -20 -19 -28
-114 -59 -60 -20 -166 -63 -235 -97 -118 -59 -189 -78 -189 -51 0 6 10 8 23 5
12 -3 16 -3 10 0 -7 3 -13 12 -13 20 0 12 4 13 23 3 20 -11 21 -11 9 4 -19 22
-12 29 74 81 83 51 163 87 269 122 82 27 118 30 135 10z m-3973 -96 c54 -24
89 -88 79 -143 -20 -105 -144 -149 -225 -81 -76 64 -58 190 33 230 42 18 64
17 113 -6z m5034 10 c115 -32 133 -195 28 -252 -94 -50 -202 16 -201 123 1 56
27 98 75 120 49 22 51 22 98 9z m-3891 -345 c191 -31 398 -104 533 -189 71
-44 141 -106 120 -106 -6 0 -14 -7 -17 -16 -5 -13 -3 -14 6 -6 9 7 17 6 26 -4
12 -13 8 -14 -22 -12 -19 1 -32 6 -30 10 3 4 -2 8 -10 8 -9 0 -71 29 -140 65
-139 73 -281 123 -436 156 -121 25 -445 35 -563 18 -54 -8 -72 -7 -85 3 -12
10 -14 10 -8 1 4 -7 5 -13 2 -13 -2 0 -12 -3 -22 -7 -13 -5 -15 -3 -9 8 8 12
6 12 -8 0 -14 -11 -17 -11 -17 0 0 8 -6 5 -15 -7 -10 -13 -14 -14 -15 -5 0 11
-3 11 -17 0 -10 -7 -14 -9 -10 -4 4 5 -3 15 -15 22 l-23 14 22 -6 c18 -5 22
-3 17 9 -3 9 -10 13 -15 10 -5 -3 -9 -1 -9 4 0 18 170 52 330 66 84 7 334 -4
430 -19z m3275 -15 c7 0 16 -8 20 -17 8 -21 57 -371 120 -848 25 -192 59 -449
75 -570 52 -383 91 -727 85 -745 -8 -25 -26 -28 -149 -22 -98 4 -108 7 -116
26 -5 11 -21 122 -35 246 -14 124 -28 240 -32 258 l-5 32 -207 0 c-113 0 -211
-4 -217 -8 -11 -7 -23 -84 -63 -399 -9 -73 -21 -137 -28 -144 -13 -13 -235
-20 -254 -8 -18 11 -14 51 60 564 38 270 81 576 95 680 75 572 118 884 127
917 l10 38 237 2 c130 2 243 2 250 1 8 -2 20 -3 27 -3z m-1231 -363 c121 -60
198 -139 245 -250 32 -79 40 -138 19 -154 -17 -14 -180 -73 -200 -73 -15 0
-26 17 -53 85 -26 65 -65 114 -114 143 -87 51 -209 29 -275 -49 -16 -18 -32
-29 -41 -25 -8 3 -62 37 -120 76 -122 82 -121 76 -23 164 110 100 217 138 371
132 93 -3 102 -5 191 -49z m-2186 31 c17 -17 17 -249 0 -266 -9 -9 -72 -12
-223 -12 -151 0 -214 -3 -223 -12 -13 -13 -17 -320 -6 -390 l7 -38 136 0 c93
0 141 -4 149 -12 17 -17 17 -239 0 -256 -8 -8 -56 -12 -149 -12 -133 0 -137
-1 -143 -22 -3 -13 -6 -204 -6 -425 0 -360 -2 -403 -17 -418 -13 -14 -34 -16
-119 -13 -67 2 -108 8 -116 16 -10 10 -14 192 -16 916 -1 580 1 913 8 930 l10
26 348 0 c257 0 351 -3 360 -12z m3996 -24 c14 -5 16 -28 16 -144 0 -149 -6
-168 -54 -156 -31 8 -36 29 -36 163 0 132 15 160 74 137z m-3655 -65 c53 -29
108 -60 123 -71 l27 -19 3 -647 c3 -636 3 -648 24 -693 58 -125 222 -154 320
-55 25 24 46 58 53 81 7 26 11 188 11 476 0 393 2 438 16 450 15 12 21 9 48
-25 17 -22 73 -91 124 -153 l92 -113 0 -339 c0 -310 -2 -344 -20 -402 -23 -75
-41 -105 -107 -172 -96 -99 -203 -141 -358 -141 -77 0 -115 5 -165 22 -106 36
-221 135 -271 234 -49 95 -49 104 -49 885 0 676 1 733 17 733 9 0 59 -23 112
-51z m-1318 -119 c18 -10 19 -25 19 -330 0 -305 -1 -320 -19 -330 -26 -13 -50
-3 -62 27 -5 13 -9 154 -9 311 0 244 2 291 16 310 17 25 27 27 55 12z m4976
-518 c8 -5 13 -52 14 -146 2 -125 0 -141 -16 -153 -54 -39 -75 2 -75 144 0
128 9 163 42 163 13 0 28 -4 35 -8z m-4976 -772 c17 -10 19 -22 19 -123 1
-222 30 -313 137 -420 86 -86 201 -137 310 -137 28 0 43 -4 43 -13 0 -7 9 -13
20 -14 11 -1 20 4 20 13 0 8 4 14 9 14 14 0 7 -30 -10 -41 -12 -7 -12 -9 0 -9
8 0 12 -2 9 -5 -9 -10 -38 7 -31 18 3 6 1 7 -6 3 -6 -4 -18 -4 -24 1 -7 4 -4
0 6 -10 22 -19 16 -37 -6 -19 -8 7 -18 8 -22 4 -5 -4 -5 0 -1 8 4 8 1 6 -8 -4
-13 -17 -18 -17 -33 -5 -11 9 -14 10 -9 2 12 -22 -65 -15 -145 12 -121 41
-208 110 -273 219 -57 95 -69 149 -70 329 -1 146 1 160 18 173 24 17 22 17 47
4z m4979 -55 c8 -10 11 -60 8 -178 l-3 -163 -37 -75 c-86 -173 -268 -291 -427
-274 -36 3 -75 6 -86 6 -16 0 -17 2 -5 9 8 5 18 6 22 4 4 -3 8 0 8 7 0 8 4 8
15 -1 9 -7 18 -10 22 -6 3 3 1 6 -5 6 -6 0 -9 7 -6 15 5 11 2 13 -10 9 -9 -3
-16 -1 -16 5 0 6 12 11 28 11 82 0 203 54 278 123 104 94 134 173 135 352 1
85 5 126 15 143 16 25 46 29 64 7z m-2740 -555 c19 -19 20 -29 14 -108 -4 -53
-2 -103 5 -127 14 -52 61 -108 119 -143 40 -23 58 -27 122 -27 57 0 85 6 116
22 72 38 124 113 140 201 8 48 30 72 65 72 88 0 71 -176 -29 -307 -70 -93
-237 -157 -354 -135 -163 30 -284 138 -323 287 -27 104 -12 209 35 257 34 33
62 36 90 8z m-579 -86 c9 -11 9 -21 0 -40 l-11 -25 -408 5 c-351 5 -479 8
-515 15 -5 0 -5 7 -2 14 4 6 1 5 -7 -3 -7 -8 -21 -16 -31 -16 -15 -2 -16 1 -5
14 11 13 10 15 -4 9 -9 -3 -22 1 -28 9 -7 8 -20 14 -29 14 -14 0 -14 -2 -1
-10 20 -13 8 -13 -26 0 -36 14 -23 24 31 25 40 0 44 -2 39 -20 -4 -16 -2 -15
9 4 10 16 16 20 21 12 5 -8 12 -9 19 -2 7 6 163 10 392 11 208 0 380 2 381 3
1 1 38 1 83 -1 54 -2 84 -8 92 -18z m2509 -5 c11 -19 13 -19 35 -5 30 20 31
20 39 1 3 -8 2 -14 -2 -14 -4 1 -14 1 -22 0 -12 -1 -13 -3 -1 -10 8 -5 0 -8
-23 -7 -30 1 -38 6 -43 24 l-6 24 -22 -26 c-22 -25 -43 -36 -30 -16 3 6 1 10
-4 10 -6 0 -11 -8 -11 -17 0 -9 -3 -13 -7 -10 -3 4 -12 2 -20 -4 -10 -9 -13
-8 -13 2 0 11 -2 11 -10 -1 -6 -9 -13 -11 -17 -5 -5 6 -15 10 -23 10 -8 0 -18
-4 -22 -10 -5 -6 -12 -4 -18 5 -7 10 -10 11 -10 2 0 -10 -64 -12 -311 -10
-284 3 -313 5 -323 21 -17 26 5 51 50 57 21 3 211 4 421 2 374 -2 383 -3 393
-23z"/>
<path d="M5885 7094 c-166 -28 -378 -80 -540 -132 l-117 -37 -54 -125 c-30
-69 -68 -161 -84 -205 -15 -44 -31 -88 -35 -97 -5 -13 27 -1 117 41 137 65
329 141 486 192 90 29 105 38 128 70 14 21 42 45 62 55 41 19 127 23 145 5 6
-6 17 -11 24 -11 11 0 13 29 12 135 0 74 -2 135 -2 134 -1 -1 -65 -12 -142
-25z"/>
<path d="M6735 4578 c-3 -18 -34 -258 -68 -533 l-63 -500 174 -3 c96 -1 176
-1 178 0 1 2 -13 122 -32 268 -37 288 -94 760 -94 785 0 11 -11 15 -45 15 -42
0 -44 -2 -50 -32z"/>
</g>
</svg>
