<?xml version="1.0" standalone="no"?>
<!DOCTYPE svg PUBLIC "-//W3C//DTD SVG 20010904//EN"
 "http://www.w3.org/TR/2001/REC-SVG-20010904/DTD/svg10.dtd">
<svg version="1.0" xmlns="http://www.w3.org/2000/svg"
 width="1024.000000pt" height="1024.000000pt" viewBox="0 0 1024.000000 1024.000000"
 preserveAspectRatio="xMidYMid meet">
<metadata>
Created by potrace 1.16, written by Peter Selinger 2001-2019
</metadata>
<g transform="translate(0.000000,1024.000000) scale(0.100000,-0.100000)"
fill="#000000" stroke="none">
<path d="M0 5120 l0 -5120 5120 0 5120 0 0 5120 0 5120 -5120 0 -5120 0 0
-5120z m5202 3154 c126 -32 222 -104 272 -203 25 -48 33 -81 20 -81 -3 0 -29
24 -57 53 l-51 52 -5 -30 c-5 -27 -10 -31 -39 -30 -40 0 -52 17 -52 75 0 25
-4 50 -8 56 -9 14 -52 37 -58 31 -3 -3 -8 -37 -11 -76 -3 -40 -9 -68 -12 -63
-3 5 -20 15 -37 22 -34 15 -54 55 -54 108 0 21 -7 35 -20 42 -30 16 -40 4 -40
-50 0 -70 -6 -80 -50 -80 -65 0 -70 5 -70 71 0 58 0 59 -29 59 -34 0 -41 -14
-41 -81 0 -37 -4 -49 -15 -49 -8 0 -15 -4 -15 -8 0 -5 -15 -9 -32 -8 -33 1
-33 1 -36 59 -3 63 -14 70 -50 37 -17 -16 -22 -32 -22 -73 0 -52 -25 -107 -36
-80 -4 8 -14 9 -35 3 -30 -9 -30 -8 -24 21 4 16 4 29 0 29 -12 0 -69 -51 -88
-79 l-19 -26 7 30 c19 88 96 185 181 228 45 23 145 51 219 61 58 8 246 -4 307
-20z m-895 -484 c-3 -27 -18 -87 -32 -132 -39 -121 -55 -228 -56 -360 0 -132
11 -205 48 -328 15 -47 25 -87 24 -89 -2 -2 3 -8 11 -12 9 -6 10 -9 1 -9 -7 0
-10 -7 -7 -17 11 -36 -26 34 -54 102 -37 89 -45 108 -47 118 -2 4 -4 9 -5 12
-1 3 -4 10 -5 15 -1 6 -3 11 -5 13 -1 1 -3 9 -5 17 -1 8 -11 44 -20 80 -32
121 -3 347 64 494 30 67 78 146 88 146 3 0 3 -22 0 -50z m1448 -60 c62 -125
86 -234 91 -407 1 -62 -1 -113 -6 -113 -4 0 -10 -19 -14 -42 -14 -90 -127
-355 -146 -343 -5 3 -11 -1 -14 -7 -19 -40 8 40 38 112 80 195 86 466 15 705
-11 39 -27 93 -36 122 -9 29 -12 60 -9 70 7 16 9 16 28 -7 11 -14 35 -54 53
-90z m-1870 -810 c-3 -5 -14 -10 -23 -10 -9 0 -48 -22 -87 -49 -38 -26 -101
-69 -138 -94 -38 -26 -73 -45 -77 -42 -13 8 7 56 38 88 15 16 50 41 77 55 83
43 226 78 210 52z m2332 -15 c127 -40 213 -108 213 -168 0 -17 -4 -16 -45 8
-25 14 -76 49 -113 77 -37 28 -91 62 -119 74 -94 42 -55 47 64 9z m-2190 -276
c28 -17 63 -64 63 -83 0 -3 -25 8 -56 25 -31 16 -66 29 -78 29 -88 -1 -321
-157 -514 -344 -164 -159 -264 -283 -375 -467 -38 -64 -147 -279 -147 -292 0
-2 -14 -35 -31 -72 -21 -47 -34 -64 -41 -57 -13 13 55 222 111 345 167 364
531 752 846 904 86 41 167 46 222 12z m2119 6 c66 -27 206 -118 304 -196 276
-219 494 -503 613 -797 14 -34 23 -62 20 -62 -3 0 -1 -6 5 -13 6 -7 9 -26 6
-41 -3 -17 -1 -25 6 -21 6 4 7 0 3 -10 -3 -10 0 -21 8 -27 11 -7 11 -9 1 -6
-8 2 -41 55 -74 118 -82 156 -148 268 -205 347 -115 159 -265 317 -418 441
-101 81 -289 206 -334 221 -49 16 -93 5 -142 -37 -39 -33 -41 -34 -34 -11 21
71 75 109 153 109 29 0 69 -7 88 -15z m-1138 -940 c3 -919 3 -940 23 -974 11
-18 17 -36 14 -39 -10 -11 -59 34 -79 74 -21 38 -21 51 -24 962 l-2 923 32 -3
33 -3 3 -940z m-2524 884 c43 -11 104 -53 89 -62 -5 -3 -33 1 -63 9 -30 8 -67
14 -83 14 -45 0 -121 -46 -148 -90 -13 -22 -27 -40 -31 -40 -5 0 -8 -7 -8 -15
0 -8 -4 -15 -10 -15 -17 0 -11 34 15 87 27 54 77 94 136 112 46 13 54 13 103
0z m5180 -23 c44 -26 75 -63 93 -111 18 -46 24 -98 14 -114 -7 -11 -12 -3 -21
30 -37 140 -141 203 -273 165 -75 -22 -85 -20 -57 9 52 55 168 66 244 21z
m-1709 -506 c83 -40 153 -109 193 -190 30 -60 50 -150 34 -150 -4 0 -24 36
-44 80 -65 136 -170 218 -308 239 -134 21 -266 -25 -353 -124 -44 -51 -104
-171 -99 -197 1 -5 -5 -8 -13 -8 -33 0 14 151 72 232 111 154 336 205 518 118z
m-1604 24 c68 -21 150 -74 194 -128 38 -47 79 -131 70 -145 -3 -5 1 -12 7 -14
7 -3 4 -6 -7 -6 -15 -1 -24 9 -33 32 -21 58 -106 143 -180 179 -63 31 -72 33
-177 33 -105 0 -114 -2 -177 -33 -43 -21 -83 -51 -114 -85 -52 -58 -104 -157
-104 -199 0 -29 -14 -38 -22 -15 -19 51 35 188 103 262 108 117 285 165 440
119z m-753 -661 c5 -80 -11 -198 -29 -208 -4 -3 -17 15 -29 40 -12 24 -36 56
-53 70 -59 49 -64 52 -81 62 -14 8 -9 15 36 49 29 22 69 61 88 87 l35 47 14
-32 c7 -18 16 -70 19 -115z m2436 111 c-17 -95 -145 -196 -248 -196 -101 0
-194 56 -239 143 -24 46 -25 50 -5 24 66 -86 116 -110 228 -110 68 0 93 5 126
22 40 22 102 83 124 122 15 28 20 26 14 -5z m-1559 -30 c-39 -94 -161 -170
-264 -165 -80 4 -170 65 -212 143 -9 17 -2 13 31 -16 67 -60 120 -79 205 -74
91 6 164 43 214 110 19 26 37 46 39 44 2 -2 -4 -21 -13 -42z m3687 -103 c-65
-62 -144 -131 -149 -131 -1 0 -3 14 -3 31 0 26 17 49 98 133 l97 101 3 -44 c3
-41 0 -47 -46 -90z m-1622 -278 c48 -65 123 -109 201 -117 73 -9 89 -14 89
-32 0 -21 -33 -33 -101 -36 -60 -2 -132 -30 -164 -63 -24 -24 -74 -113 -86
-152 -12 -42 -29 -58 -29 -27 0 32 -62 138 -105 179 -49 46 -101 65 -179 65
-59 0 -96 15 -96 39 0 22 26 31 96 31 119 0 221 72 263 186 12 32 24 66 27 74
4 9 14 -7 27 -42 11 -32 37 -79 57 -105z m-3861 128 c23 -42 9 -44 -516 -42
-360 2 -499 5 -505 14 -3 6 -2 19 3 29 9 17 38 18 509 18 480 0 500 -1 509
-19z m5261 -11 c0 -17 -5 -30 -12 -30 -7 0 -146 -1 -308 -2 -257 -1 -295 1
-304 15 -7 11 -6 20 3 31 12 14 52 16 317 16 l304 0 0 -30z m-3318 -196 c30
-15 62 -56 73 -94 l7 -25 -23 21 c-57 51 -143 74 -203 54 -49 -16 -119 -88
-141 -145 -13 -35 -20 -44 -26 -33 -15 27 22 130 65 176 59 65 170 86 248 46z
m923 1 c69 -28 122 -98 138 -182 9 -44 -10 -43 -28 1 -35 84 -115 140 -200
140 -56 0 -98 -19 -144 -64 -27 -27 -31 -29 -31 -12 0 25 38 80 72 105 48 35
124 40 193 12z m-1617 -62 c2 -17 -2 -23 -15 -24 -10 0 -175 0 -368 0 -192 1
-356 1 -362 1 -14 0 -18 32 -6 43 4 4 173 6 377 5 l371 -3 3 -22z m-1314 -59
c18 -18 19 -23 6 -44 -8 -13 -52 -15 -300 -15 l-290 0 0 38 0 37 284 0 c245 0
287 -2 300 -16z m5326 -19 c0 -39 7 -36 -110 -39 -36 -1 -71 -5 -79 -10 -8 -5
-12 -5 -9 0 4 5 -66 9 -165 8 -95 0 -180 3 -189 8 -21 10 -23 39 -6 56 9 9 86
12 285 12 l273 0 0 -35z m-3529 -38 c-13 -33 -4 -102 19 -154 60 -136 223
-253 406 -294 83 -18 264 -16 344 5 157 40 304 147 366 266 23 45 28 68 29
126 l0 71 23 -24 c25 -28 27 -57 8 -129 -33 -123 -132 -238 -264 -307 -245
-128 -594 -97 -794 70 -135 112 -200 267 -152 361 18 37 28 43 15 9z m-883
-34 c32 -27 37 -64 12 -96 -29 -37 -80 -37 -109 -1 -27 35 -26 59 4 89 28 29
65 32 93 8z m-930 -275 c16 -16 15 -48 0 -49 -12 -1 -488 0 -676 1 -46 0 -71
4 -67 10 3 6 1 10 -5 10 -6 0 -8 5 -5 11 4 6 14 8 22 5 8 -3 11 -2 8 3 -10 17
26 19 371 20 252 1 343 -2 352 -11z m1516 -4 c19 -18 20 -30 4 -40 -6 -4 -268
-6 -582 -5 -314 0 -630 1 -702 1 -107 0 -133 3 -138 15 -3 8 2 21 10 30 14 13
99 15 704 15 613 0 690 -2 704 -16z m3172 -9 c4 -14 4 -29 1 -32 -4 -3 -325
-5 -713 -5 -743 2 -745 2 -707 44 15 17 59 18 714 18 l699 0 6 -25z m721 13
c15 -6 31 -11 36 -10 4 1 7 -3 7 -9 0 -5 5 -7 10 -4 16 10 11 -1 -7 -16 -11
-10 -14 -10 -9 -1 9 14 -6 16 -20 2 -7 -7 -116 -11 -295 -11 -376 -1 -349 -2
-349 19 0 40 13 42 311 42 196 0 297 -4 316 -12z m-5872 -301 c-16 -12 -47
-38 -67 -58 l-38 -37 0 -551 0 -551 137 0 c118 0 143 3 180 21 45 22 95 74
116 122 17 39 29 33 22 -10 -28 -171 -88 -284 -189 -356 -29 -21 -40 -22 -324
-23 -161 -1 -314 1 -339 4 l-46 7 42 29 c23 16 54 50 69 75 l27 46 3 580 c3
659 8 613 -83 677 -25 18 -45 35 -45 40 0 4 127 8 283 7 l282 0 -30 -22z
m3779 5 c-5 -5 -26 -21 -47 -36 -21 -15 -52 -46 -68 -69 l-29 -40 0 -441 c0
-479 -5 -526 -55 -626 -30 -60 -103 -142 -155 -175 -138 -87 -353 -97 -492
-23 -76 40 -151 121 -191 205 l-32 68 -3 447 -3 447 -194 3 -194 3 -5 -28 c-3
-15 -3 -54 1 -87 l6 -60 164 0 c91 0 163 -3 161 -7 -37 -72 -72 -156 -90 -217
-12 -42 -25 -76 -29 -76 -4 0 -10 11 -13 25 -9 37 -54 55 -136 55 l-71 0 3
-328 3 -329 27 -41 c15 -22 48 -55 73 -72 25 -17 45 -35 45 -39 0 -10 -405
-13 -473 -3 l-47 7 47 35 c26 19 58 53 70 75 l23 40 0 574 c0 654 7 605 -91
677 -27 20 -48 38 -46 40 7 8 1197 -9 1197 -17 0 -4 -18 -21 -39 -39 -22 -17
-49 -46 -60 -64 -20 -32 -21 -46 -21 -500 0 -511 0 -509 59 -559 77 -65 183
-35 239 68 15 26 17 80 20 430 2 220 0 438 -3 484 l-7 85 -54 56 c-30 31 -54
59 -54 61 0 2 129 3 287 1 157 -1 282 -6 277 -10z m724 8 c48 0 82 -4 82 -10
0 -5 -7 -10 -15 -10 -28 0 -121 -47 -159 -80 -46 -41 -75 -97 -83 -160 l-6
-49 -18 23 c-26 33 -80 56 -131 56 -117 0 -176 -122 -102 -210 14 -16 80 -67
147 -113 241 -163 318 -268 325 -445 6 -131 -17 -208 -90 -299 -49 -63 -129
-118 -205 -144 -63 -21 -82 -22 -248 -19 -99 2 -217 4 -263 4 l-83 -1 43 44
43 44 6 197 c3 108 7 198 7 200 8 11 22 -5 36 -41 39 -104 165 -199 265 -200
105 -2 172 56 179 154 8 102 -34 157 -218 284 -187 130 -259 229 -268 371 -12
192 86 342 261 400 32 11 85 13 227 9 102 -3 222 -5 268 -5z m1073 0 l146 0
-48 -49 c-76 -75 -76 -73 83 -571 111 -347 166 -492 235 -620 104 -193 237
-348 355 -410 73 -39 65 -48 -43 -49 -105 -1 -206 36 -334 122 -117 79 -217
203 -294 365 l-35 72 -221 0 -221 0 -27 -82 c-40 -127 -41 -135 -21 -166 9
-15 26 -34 36 -44 11 -9 15 -18 11 -21 -9 -5 -603 -7 -603 -1 0 2 21 15 48 30
86 50 143 98 196 169 104 137 154 255 291 690 42 132 80 250 86 263 5 13 7 28
4 32 -3 5 -41 8 -83 6 -139 -5 -253 -79 -314 -204 l-33 -67 -3 100 c-7 201 50
330 176 398 70 38 135 47 312 42 85 -3 221 -5 301 -5z m-4271 -4 c0 -2 -24
-18 -54 -34 -29 -17 -64 -43 -76 -59 -20 -25 -22 -36 -16 -93 5 -65 17 -105
140 -495 161 -507 211 -621 308 -709 33 -30 56 -56 51 -58 -7 -4 -363 -4 -436
0 l-28 2 20 26 c29 37 26 63 -18 179 l-38 100 -215 3 -216 2 -21 -78 c-11 -43
-21 -87 -21 -98 0 -30 35 -79 74 -103 20 -13 36 -26 36 -31 0 -4 -124 -7 -274
-6 -151 0 -272 4 -268 7 4 3 28 23 55 44 65 51 105 138 167 360 28 99 73 250
100 335 84 264 148 485 155 532 9 56 -8 92 -67 142 l-42 36 342 0 c188 0 342
-2 342 -4z m1638 -1809 c21 -13 63 -37 92 -53 l55 -28 -45 -8 c-71 -14 -357
-5 -372 11 -10 11 -10 12 0 7 6 -4 12 -2 12 3 0 6 3 10 8 9 10 -3 80 35 120
65 40 30 79 29 130 -6z m772 -187 c0 -14 -300 -107 -420 -130 -165 -32 -261
-39 -470 -35 -223 3 -367 22 -555 70 -129 33 -233 71 -223 81 3 3 37 -2 74
-11 129 -30 309 -63 414 -76 166 -21 563 -17 701 6 140 23 225 40 339 69 74
19 136 34 138 35 1 1 2 -3 2 -9z m-2140 -163 c373 -198 835 -309 1285 -309
455 -1 900 111 1313 328 56 30 106 54 109 54 24 0 -199 -147 -312 -205 -111
-58 -330 -136 -485 -174 -60 -14 -204 -40 -315 -56 -92 -14 -547 -14 -630 0
-98 16 -307 57 -381 75 -262 63 -573 214 -740 359 l-39 34 45 -25 c25 -14 92
-51 150 -81z m1290 -662 c25 2 59 5 77 7 35 4 35 6 -10 -61 -17 -24 -38 -65
-48 -90 l-17 -46 -11 28 c-6 16 -11 32 -11 36 0 4 -18 33 -40 64 -45 63 -48
71 -20 64 11 -3 20 0 20 6 0 9 2 9 8 0 5 -8 24 -11 52 -8z"/>
<path d="M7540 3792 c0 -10 -27 -116 -60 -236 -33 -120 -60 -220 -60 -222 0
-2 63 -4 141 -4 129 0 140 1 135 18 -3 9 -35 115 -71 235 -36 119 -65 220 -65
222 0 3 -4 5 -10 5 -5 0 -10 -8 -10 -18z"/>
<path d="M3002 3597 c-35 -122 -65 -232 -69 -244 l-5 -23 142 0 142 0 -4 28
c-6 32 -127 431 -137 449 -4 7 -35 -87 -69 -210z"/>
</g>
</svg>
