<?xml version="1.0" standalone="no"?>
<!DOCTYPE svg PUBLIC "-//W3C//DTD SVG 20010904//EN"
 "http://www.w3.org/TR/2001/REC-SVG-20010904/DTD/svg10.dtd">
<svg version="1.0" xmlns="http://www.w3.org/2000/svg"
 width="64.000000pt" height="64.000000pt" viewBox="0 0 64.000000 64.000000"
 preserveAspectRatio="xMidYMid meet">
<metadata>
Created by potrace 1.16, written by Peter Selinger 2001-2019
</metadata>
<g transform="translate(0.000000,64.000000) scale(0.010667,-0.010667)"
fill="#000000" stroke="none">
<path d="M0 3000 l0 -3000 3000 0 3000 0 0 3000 0 3000 -3000 0 -3000 0 0
-3000z m3005 15 l0 -2680 -105 0 -105 0 -3 2670 c-1 1469 0 2676 3 2683 3 9
31 12 107 10 l103 -3 0 -2680z m333 2605 c150 -108 268 -291 302 -467 19 -96
8 -261 -23 -356 -46 -142 -144 -278 -268 -371 -84 -64 -89 -58 -89 101 l0 125
34 41 c100 124 140 301 101 450 -19 72 -46 127 -96 194 l-39 52 0 119 c0 110
7 142 30 142 4 0 25 -13 48 -30z m-810 -1420 c-2 -79 -6 -105 -18 -111 -8 -4
-59 -28 -112 -53 -443 -204 -709 -661 -667 -1147 24 -289 143 -537 355 -739
116 -111 224 -177 417 -258 l27 -12 0 -105 c0 -79 -3 -107 -13 -111 -20 -7
-148 41 -262 99 -307 157 -559 445 -674 770 -56 161 -75 272 -74 457 0 131 4
186 22 267 101 477 437 863 896 1029 50 18 94 29 98 25 4 -4 6 -54 5 -111z
m909 -280 c132 -63 236 -135 338 -235 301 -295 429 -692 350 -1080 -60 -292
-230 -555 -480 -742 -72 -54 -225 -137 -307 -168 -73 -27 -79 -17 -76 113 l3
106 98 50 c122 64 201 121 279 205 265 283 336 703 179 1054 -95 211 -249 369
-465 477 l-91 45 -3 104 c-4 153 -1 155 175 71z m-919 -239 l3 -113 -69 -73
c-196 -205 -258 -478 -168 -736 35 -99 80 -171 164 -260 l72 -76 0 -116 c0
-64 -4 -118 -9 -121 -14 -9 -151 93 -222 165 -353 358 -358 907 -10 1272 77
81 206 180 225 174 7 -2 12 -48 14 -116z m837 -326 c280 -199 363 -552 198
-835 -43 -72 -144 -180 -216 -229 -70 -47 -77 -38 -77 106 l0 115 35 41 c79
92 117 228 97 342 -16 83 -40 137 -91 205 l-41 54 0 111 c0 100 7 135 28 135
3 0 33 -20 67 -45z"/>
</g>
</svg>
